<svg width="38.065mm" height="8.4243mm" version="1.1" viewBox="0 0 38.065 8.4243" xmlns="http://www.w3.org/2000/svg">
 <g transform="translate(-45.602 -110.35)">
  <g fill="#ff8928" stroke-width=".26458" aria-label="Record">
   <path d="m45.602 110.35v8.3396h1.4711v-3.3337h2.3707c0.59266 0 1.2912 0 1.2912 1.2277v0.80433c0 0.13759 0 0.79375 0.11642 1.3018h1.5134c-0.05292-0.21167-0.17992-0.65617-0.17992-1.5346v-0.77258c0-0.889-0.28575-1.4817-1.143-1.6828 1.2488-0.38099 1.2594-1.5452 1.2594-2.0743 0-1.397-0.64558-2.2754-2.286-2.2754zm4.0428 1.3441c0.75142 0 1.1959 0.22225 1.1959 1.0901 0 1.1007-0.49742 1.2594-1.2277 1.2594h-2.54v-2.3495z"/>
   <path d="m59.093 115.97c0.03175-2.3601-0.08467-3.5983-2.8681-3.5983-2.6776 0-2.8998 1.2806-2.8998 3.3337 0 2.0637 0.42333 3.0692 3.0057 3.0692 2.1696 0 2.6776-0.79374 2.7622-2.1802h-1.3758c-0.03175 0.68791-0.15875 0.95249-1.4182 0.95249-1.6192 0-1.6192-0.53975-1.6192-1.5769zm-4.4132-1.0266c0.04233-0.98425 0.26458-1.3441 1.5769-1.3441 1.3758 0 1.4287 0.53975 1.4499 1.3441z"/>
   <path d="m65.738 114.76c-0.0635-1.6087-0.58208-2.3812-2.8787-2.3812-2.4024 0-2.8575 0.94191-2.8575 3.1856 0 2.3495 0.508 3.2173 2.9845 3.2173 2.0637 0 2.7728-0.63499 2.794-2.5188h-1.3547c0.01058 1.1007-0.42333 1.27-1.524 1.27-1.4711 0-1.5452-0.53975-1.5452-1.9685 0-1.7251 0.28575-1.9262 1.5981-1.9262 0.99483 0 1.4393 0.16933 1.4393 1.1218z"/>
   <path d="m69.568 112.38c-2.6247 0-2.8892 1.0372-2.8892 3.3549 0 2.4765 0.73025 3.048 2.9527 3.048 2.5823 0 2.8152-1.1324 2.8152-3.3232 0-2.3918-0.635-3.0797-2.8787-3.0797zm-1.524 3.2173c0-1.4817 0.04233-1.9579 1.524-1.9579 1.3017 0 1.524 0.32808 1.524 1.8203 0 1.651-0.07408 2.0743-1.524 2.0743-1.4817 0-1.524-0.46567-1.524-1.9368z"/>
   <path d="m73.525 112.46v6.2336h1.3547v-3.7888c0-1.2277 1.3758-1.2277 1.9262-1.2277 0.28575 0 0.47625 0.0106 0.64558 0.0212v-1.3229c-1.5769-0.0212-2.1378 0.0741-2.5717 0.71966l-0.05292-0.63499z"/>
   <path d="m82.312 110.35v2.7093c-0.45508-0.55033-1.0372-0.68791-1.7674-0.68791-2.1802 0-2.4977 1.3758-2.4977 3.1115 0 1.9791 0.29633 3.2914 2.5188 3.2914 1.2382 0 1.6298-0.51858 1.7992-0.75141l0.05292 0.66675h1.2488v-8.3396zm-1.4182 3.2279c1.3335 0 1.4393 0.78317 1.4393 2.1061 0 1.3547-0.24342 1.8838-1.5028 1.8838-1.4182 0-1.4182-0.78317-1.4182-2.1167 0-1.2277 0.13758-1.8732 1.4817-1.8732z"/>
  </g>
 </g>
</svg>
