<svg width="43.44mm" height="10.274mm" version="1.1" viewBox="0 0 43.44 10.274" xmlns="http://www.w3.org/2000/svg">
 <g transform="translate(-80.94 -81.956)" fill="#0586ff">
  <g fill="#0586ff">
   <g fill="#0586ff">
    <g stroke="#0586ff" stroke-linecap="square" stroke-linejoin="round" stroke-width="1.765" aria-label="START">
     <path d="m88.966 85.643c-0.01058-2.0002-0.38099-2.8045-3.63-2.8045-1.7144 0-3.4818 0.127-3.4818 2.5293 0 1.2488 0.4974 2.1272 1.8414 2.2648l3.0056 0.29632c0.64556 0.0635 0.73023 0.48682 0.73023 0.80431 0 0.83606-0.53973 0.89956-1.9473 0.89956-1.7779 0-1.7779-0.25399-1.7885-1.2805h-1.8732c0.01058 2.3706 0.61381 2.995 3.8099 2.995 2.1695 0 3.6511-0.33866 3.6511-2.6458 0-0.50798 0-2.1907-2.2436-2.3918l-2.5505-0.23283c-0.63498-0.05291-0.83606-0.26458-0.83606-0.6879 0-0.87839 0.6879-0.87839 1.7991-0.87839 1.5451 0 1.6509 0.27516 1.6509 1.1324z" style="paint-order:stroke markers fill"/>
     <path d="m97.638 84.659v-1.7356h-7.5245v1.7356h2.8045v6.6038h1.9155v-6.6038z" style="paint-order:stroke markers fill"/>
     <path d="m103.74 82.923h-2.4764l-3.1749 8.3394h2.1378l0.6244-1.7356h3.3125l0.62439 1.7356h2.1378zm-0.0952 4.9634h-2.2859l1.143-3.122z" style="paint-order:stroke markers fill"/>
     <path transform="matrix(.26458 0 0 .26458 80.94 81.956)" d="m101.54 3.6562v31.52h6.4024c-0.0436-0.39224-0.0144-0.79431 0.0195-1.1934-0.0177-0.01362-0.036-0.02705-0.0469-0.03711-0.21456-0.19909-0.40068-0.42577-0.60156-0.63867-0.28403-1.9597-0.16935-0.55971-0.14063-0.41602 0.0252 0.12661 0.1095 0.1588 0.0781 0.18359-0.0148 0.01153-0.0325-0.01942-0.0469-0.03125-0.0801-0.06569-0.15756-0.13387-0.23632-0.20117-0.047-0.04373-0.0972-0.08541-0.14258-0.13086-9e-3 -0.0094-0.0128-0.01277-0.0215-0.02148-0.57443-0.2262-0.88242-0.46009-1.0664-1.1074-6e-3 -0.0041 7.3e-4 -2e-3 -2e-3 -0.0039-1e-3 -0.0037-9e-4 -0.0079-2e-3 -0.01172-0.46014-0.07603-0.15655 0.13879-0.70898-0.36328-0.26972-0.70717-0.34888-0.69672-0.33203-0.99805-0.0619-0.11955-0.12382-0.24506-0.17579-0.36328-0.16894-0.01131-0.16847 0.03482-0.2246-0.28711-0.0959-0.02907-0.0844-0.14402-0.34376-0.84961-0.0131-3.8e-5 -0.0346 0.01149-0.041 0-0.0165-0.02938-0.0832-0.24476-0.0937-0.24414-0.01 5.74e-4 1e-3 0.02781 4e-3 0.03711l-2e-3 2e-3c-0.0727-0.10543-0.15191-0.26367-0.21484-0.38281-0.0459-0.16876-0.12696-0.33135-0.13867-0.50586-4e-3 -0.06625 2e-3 -0.13145 0.0117-0.19727-0.26398-0.17147-0.44996-0.35246-0.50391-0.72461-0.0825-0.0354-0.10153-0.08059-0.14258-0.27344-0.11902-0.18782-0.29542-0.5386-0.2793-0.63086 0.0459 0.11879 0.1172 0.2198 0.20899 0.30469-0.0159-0.07083-0.0329-0.14992-0.0547-0.24024-0.10131-0.0939-0.1463-0.10489-0.1543-0.06641-0.072-0.18748-0.0802-0.41885 2e-3 -0.70312 0.0163-0.05652 0.0414-0.10835 0.0742-0.1543 0.0397-0.09117 0.0588-0.12676 0.0762-0.08594 0.37358-0.34242 1.2676-0.29572 1.8301-0.0098-0.0112-0.08112-0.0232-0.1615-0.0352-0.25195-3e-3 -0.02226 2e-3 -0.03121 0.0117-0.0293 0.0417 0.0083 0.18137 0.20888 0.24414 0.2832 0.16319 0.19326 0.22695 0.3246 0.27734 0.48828 0.0514 0.07025 0.0994 0.14272 0.14649 0.2168 0.0484 0.04664 0.0964 0.09662 0.14648 0.15039 0.0545 0.05847 0.0858 0.12931 0.10742 0.20703 0.12227 0.06373 0.15638 0.13168 0.125 0.19922 0.0508 0.04862 0.0817 0.07692 0.0586 0.05078 0.24483 0.57571 0.4437 0.69052 0.39453 1.1562-2e-3 0.01427-4e-3 0.02872-6e-3 0.04297 0.14055 0.26506 0.27543 0.5261 0.35742 0.81641 0.11278 0.13808 0.21787 0.2881 0.28711 0.44141 0.0343 0.04925 0.0698 0.10621 0.10547 0.16797 0.24064 0.20148 0.21618 0.23528 0.32812 0.73047 0.19555 0.10437 0.36471 0.24282 0.56446 0.41602 0.39441 0.4999 0.34896 0.38871 0.34961 0.59961 0.14941 0.07901 0.29536 0.16684 0.4375 0.25781 0.062 0.0397 0.0978 0.10876 0.14648 0.16406 9e-3 0.0098 0.0193 0.02157 0.0254 0.02734 0.0322 0.02927 0.0649 0.05872 0.0977 0.08789v-7.2773h9.3594c1.96 0 3.959 0.03971 3.959 3.5996v2.9609c0 1.48 0.12066 3.3999 0.48047 4.8398h7.4004c-0.24-0.95997-0.75977-2.8812-0.75977-6.1211v-2.8398c0-3.0399-1.1601-5.0388-4-5.7188 4.3599-1.52 4.4785-5.6802 4.4785-8.0801 0-7.8398-4.9588-8.7598-8.6387-8.7598zm5.2109 25.113c-0.0181-0.01514-0.0373-0.02939-0.0586-0.04687 0.0337 0.10516 0.0491 0.21052 0.0352 0.31055v2e-3c0.0614 0.07496 0.12722 0.14721 0.19922 0.21094 0.10935 0.09679-0.026-0.21716-0.17578-0.47656zm-0.0586-0.04687c-0.0129-0.04039-0.0286-0.08072-0.0469-0.12109-0.096-0.13769-0.17574-0.2051-0.16992-0.05859 0.0873 0.0733 0.15849 0.13183 0.2168 0.17969zm-3.9922-3.8828c-0.0288 0.02643-0.0539 0.05482-0.0762 0.08594-0.0181 0.04153-0.0409 0.09323-0.0684 0.1543-0.0679 0.3922 0.0283 0.54243 0.25976 0.59375-0.0647-0.51408-0.0889-0.77217-0.11523-0.83398zm0.0566 1.25c0.0338 0.15098 0.0531 0.24531 0.0703 0.32617 0.0639 0.10087 0.11256 0.15559 0.10352 0.0957-0.0173-0.11502-0.0344-0.22267-0.0488-0.32422-0.0445-0.02989-0.0869-0.0624-0.125-0.09766zm5.9434-15.873h10.439c2.04 0 3.4004 0.63836 3.4004 3.2383 0 3.2399-1.2414 3.9609-3.4414 3.9609h-10.398zm-3.2656 16.066c-0.0156 3.76e-4 -0.0312 0.0016-0.0469 2e-3 0.0161 0.04048 0.0317 0.08022 0.0469 0.12109 1e-3 -0.04034 2e-3 -0.08101 0-0.12305zm-0.39648 0.08203c-0.38022 0.10034-0.9074 0.14921-1.3848 0.08398 0.0765 0.19281 0.16068 0.46428 0.24805 0.82812 0.0126 0.01025 0.0242 0.01865 0.0371 0.0293 0.0329 0.02721 0.0165 0.03275-0.0234 0.02734 0.0168 0.07144 0.034 0.1464 0.0508 0.22461 0.0431 0.0024 0.0888 2e-3 0.13672 0 0.58996-0.02449 0.99472-0.24591 1.1934-0.61133-0.0947-0.19024-0.18307-0.38397-0.25781-0.58203zm-1.0723 1.1934c-0.0856-0.0048-0.16224-0.01873-0.23047-0.03906 0.0112 0.02493 0.0234 0.05075 0.0352 0.07617 0.0743 0.04419 0.14998 0.08824 0.23047 0.14062-0.0123-0.06115-0.0228-0.1203-0.0352-0.17773zm-0.19531 0.03711c-0.0564-0.03354-0.11191-0.06831-0.16406-0.09961 0.023 0.08182 0.0456 0.1532 0.0547 0.19336 5e-3 0.0064 0.45796 0.66682 0.38671 0.2832-0.0116-0.06246-0.0235-0.12064-0.0352-0.17969-0.0808-0.01357-0.16156-0.02735-0.19336-0.09375-0.0169-0.03536-0.0329-0.06904-0.0488-0.10352zm0.24219 0.19727c0.0384 0.0064 0.0768 0.01268 0.10937 0.02539-0.0403-0.0283-0.08-0.05653-0.11914-0.08203 4e-3 0.0182 6e-3 0.03811 0.01 0.05664zm-0.27735-0.27344c-0.0464-0.10374-0.0881-0.20223-0.125-0.29688-0.0298-0.01789-0.0549-0.03653-0.0703-0.05469-4e-3 -0.0043-6e-3 -0.0094-0.01-0.01367 0.0113 0.0908 0.0395 0.20643 0.0684 0.31055 0.0417 0.02191 0.087 0.03986 0.13671 0.05469zm-0.20507-0.36523c-7.9e-4 -0.0063-3e-3 -0.01347-4e-3 -0.01953-8.2e-4 0.0045-1e-3 0.0092-2e-3 0.01367 2e-3 0.0021 4e-3 0.0037 6e-3 0.0059zm-6e-3 -0.0059c-0.0684-0.08413-0.1246-0.17757-0.17578-0.27344-0.0935-0.05695-0.16769-0.09432-0.22657-0.12109 0.0778 0.24027 0.16796 0.47644 0.35547 0.63086 0.0133-0.07895 0.0319-0.1577 0.0469-0.23633zm-0.17559-0.2734c0.0526 0.03203 0.11181 0.06947 0.17773 0.11523-0.0749-0.22007-0.12441-0.40698-0.14844-0.55273-0.0764 0.0079-0.15217 0.01696-0.22851 0.02539 0.0668 0.13776 0.12761 0.27799 0.19922 0.41211zm0.0293-0.4375c0.0429-0.0044 0.086-0.0093 0.12891-0.01367-0.0458-0.0088-0.0906-0.01807-0.13477-0.0293 2e-3 0.01414 3e-3 0.02795 6e-3 0.04297zm0.12891-0.01367c0.0482 0.0093 0.097 0.01863 0.14648 0.02539-5e-3 -0.01274-0.0106-0.02506-0.0156-0.03711-0.0435 0.0043-0.0874 0.0073-0.13086 0.01172zm2.625 1.4473c1e-3 0.0074 4e-3 0.02307 8e-3 0.04297 8e-3 0.0079 0.0157 0.01539 0.0234 0.02344-7e-3 -0.01763-0.0263-0.05985-0.0293-0.06641zm0.41992 0.78516c-0.01 6e-3 -0.0214 0.0401-0.0488 0.07422 0.0446 0.06381 0.0885 0.12726 0.13477 0.18945-0.0514-0.19198-0.0714-0.27244-0.0859-0.26367zm-1.7227 1.0273c7e-3 0.03891 0.014 0.07317 0.0195 0.10742 0.0388 0.05198 0.0785 0.1048 0.12304 0.15625 0.11771 0.13591 0.6908 0.16229 0.53516 0.07227-0.2907-0.16814-0.50963-0.27061-0.67774-0.33594zm0.041 0.25195c2e-3 0.01383 4e-3 0.0301 6e-3 0.04297 1.3e-4 0.0011-1.3e-4 0.0028 0 0.0039 0.10418 0.18665 0.21286 0.37033 0.37305 0.50391 0.14104 0.11761 0.69606 0.14554 0.55078 0.0332-0.42557-0.32902-0.72087-0.49678-0.92969-0.58398zm3.1367 0.78516c0.0165 0.14444 0.0527 0.35227 0.13086 0.67578 0.0268 0.11164 0.047-0.23579 8e-3 -0.34375-0.0504-0.13889-0.0952-0.24571-0.13867-0.33203zm-2.1777 0.86524c0.0119 0.01941 0.0246 0.03854 0.0391 0.0625 0.0794 0.04749 0.15738 0.09623 0.24609 0.11914 0.11766 0.03039 0.48061 0.03809 0.36524 0-0.29728-0.09814-0.50277-0.15113-0.6504-0.18164zm1.8828 1.9023c-0.0227 0.0096 0.13646 0.17951 0.26172 0.34375 3e-3 -0.03382 5e-3 -0.06784 8e-3 -0.10156-0.0644-0.08889-0.13543-0.17031-0.22852-0.22656-0.023-0.01387-0.0362-0.01764-0.041-0.01563z" stroke-width="6.6709" style="paint-order:stroke markers fill"/>
     <path d="m123.5 84.659v-1.7356h-7.5245v1.7356h2.8045v6.6038h1.9155v-6.6038z" style="paint-order:stroke markers fill"/>
    </g>
   </g>
  </g>
 </g>
 <g transform="translate(-80.94 -81.956)">
  <g fill="#fefeff">
   <g fill="#fefeff">
    <path transform="matrix(.26458 0 0 .26458 78.24 79.981)" d="m26.816 10.801c-6.4798 0-13.158 0.47888-13.158 9.5586 0 4.7199 1.8791 8.0406 6.959 8.5605l11.359 1.1191c2.4399 0.23999 2.7598 1.8411 2.7598 3.041 0 3.1599-2.0395 3.4004-7.3594 3.4004-6.7198 0-6.7198-0.95997-6.7598-4.8398h-7.0801c0.04 8.9597 2.3208 11.318 14.4 11.318 8.1997 0 13.799-1.2803 13.799-10 0-1.9199 0.0012-8.2791-8.4785-9.0391l-9.6406-0.88086c-2.3999-0.19999-3.1602-0.99966-3.1602-2.5996 0-3.3199 2.6009-3.3184 6.8008-3.3184 5.8398 0 6.2383 1.0394 6.2383 4.2793h7.041c-0.04-7.5598-1.4411-10.6-13.721-10.6zm18.059 0.32031v6.5586h10.6v24.959h7.2402v-24.959h10.6v-6.5586zm42.148 0-12 31.518h8.0801l2.3613-6.5586h12.52l2.3594 6.5586h8.0801l-12.041-31.518zm24.725 0v31.518h7.1602v-11.398h9.3594c1.9599 0 3.9609 0.03972 3.9609 3.5996v2.959c0 1.48 0.12048 3.3999 0.48046 4.8398h7.3984c-0.23999-0.95997-0.75976-2.8792-0.75976-6.1191v-2.8398c0-3.0399-1.1601-5.0407-4-5.7207 4.3599-1.52 4.4805-5.6782 4.4805-8.0781 0-7.8398-4.9607-8.7598-8.6406-8.7598zm30.857 0v6.5586h10.6v24.959h7.2402v-24.959h10.6v-6.5586zm-23.697 6.5586h10.439c2.0399 0 3.4004 0.64032 3.4004 3.2402 0 3.2399-1.2395 3.9609-3.4395 3.9609h-10.4zm-27.205 0.40039 4.3203 11.799h-8.6387z" style="paint-order:normal"/>
   </g>
  </g>
 </g>
</svg>
