<svg width="9.3215mm" height="10.189mm" version="1.1" viewBox="0 0 9.3215 10.189" xmlns="http://www.w3.org/2000/svg" xmlns:xlink="http://www.w3.org/1999/xlink">
 <defs>
  <linearGradient id="linearGradient35356" x1="83.26" x2="83.26" y1="91.239" y2="82.895" gradientTransform="matrix(1 0 0 1 3.3403e-5 -.00023953)" gradientUnits="userSpaceOnUse">
   <stop stop-color="#fdada4" offset="0"/>
   <stop stop-color="#ffe8e5" offset="1"/>
  </linearGradient>
 </defs>
 <g transform="translate(-80.918 -81.956)">
  <g fill="url(#linearGradient35356)" stroke="#ef2118" stroke-linejoin="round" stroke-width="1.765" aria-label="2">
   <path d="m87.156 88.162c0.26458-0.03175 0.87841-0.10583 1.5557-0.6985 0.37042-0.32808 0.64558-0.87841 0.64558-1.9579 0-2.5188-1.6298-2.667-3.8312-2.667-3.4713 0-3.5666 1.2171-3.5666 2.9951h1.8627c0.02117-1.0372 0.08467-1.2594 1.8521-1.2594 1.5663 0 1.7992 0.29633 1.7992 1.0372 0 0.70908-0.28575 0.81491-0.89958 0.889l-2.7093 0.3175c-2.0637 0.24342-2.0637 1.9791-2.0637 2.7834v1.6616h7.493v-1.7357h-5.5986v-0.26458c0-0.62442 0.33867-0.71966 0.889-0.78316z" stroke-linecap="square" style="paint-order:stroke markers fill"/>
  </g>
 </g>
</svg>
